# xmcd
#
# Track frame offsets:
# 150
# 12825
# 25580
# 34919
# 47981
# 69515
# 79381
# 89817
# 105410
#
# Disc length: 1551 seconds
#
#
# Revision: 0
# Processed by: cddbd v1.5.2PL0 Copyright (c) Steve Scherf et al.
# Submitted via: FreeRIP 2.942 
#
DISCID=6f060d09
DTITLE=Various Artist - D'ixie et d'ailleurs
DYEAR=1900
DGENRE=Blues
TTITLE0=01-Duke Ellington-I don't mean a thing
TTITLE1=02-Ray Charles-South
TTITLE2=03-Bert Kalmar-Who's sorry now ?
TTITLE3=04-Deane Kincaide-Tiger rag
TTITLE4=05-Joe Primrose-St James infirmary
TTITLE5=06-Walter Melrose-Copenhagen
TTITLE6=07-Ned Miller-Sunday
TTITLE7=08-Clarence William-Royal garden blues
TTITLE8=09-Winton Marsalis-I see the light
EXTD=
EXTT0=
EXTT1=
EXTT2=
EXTT3=
EXTT4=
EXTT5=
EXTT6=
EXTT7=
EXTT8=
PLAYORDER=
